<svg width="985" height="761" viewBox="0 0 985 761" fill="none" xmlns="http://www.w3.org/2000/svg">
<defs>
  <style type="text/css">
    text, tspan {
      font-family: 'Inter', Arial, sans-serif !important;
    }
  </style>
</defs>
<rect width="985" height="761" fill="#2D333B"/>
<text fill="white" style="white-space: pre" xml:space="preserve" font-size="28" font-weight="300" letter-spacing="0em"><tspan x="22.885" y="47.1598">&#x41c;&#x430;&#x441;&#x43e;&#x43d;&#x44b; &#x421;&#x430;&#x43c;&#x441;&#x43e;&#x43d;&#x430;</tspan></text>
<path d="M243.585 597.855H243.085V598.355H243.585V597.855ZM243.939 291.29C243.743 291.095 243.427 291.095 243.232 291.29L240.05 294.472C239.854 294.667 239.854 294.984 240.05 295.179C240.245 295.374 240.562 295.374 240.757 295.179L243.585 292.351L246.414 295.179C246.609 295.374 246.925 295.374 247.121 295.179C247.316 294.984 247.316 294.667 247.121 294.472L243.939 291.29ZM263.075 597.855V597.355H243.585V597.855V598.355H263.075V597.855ZM243.585 597.855H244.085V414.826H243.585H243.085V597.855H243.585ZM263.176 414.826V414.326H243.585V414.826V415.326H263.176V414.826ZM243.585 414.826H244.085V342.873H243.585H243.085V414.826H243.585ZM243.585 342.873H244.085V291.644H243.585H243.085V342.873H243.585ZM263.186 342.873V342.373H243.585V342.873V343.373H263.186V342.873Z" fill="#AAAAAA"/>
<rect width="200" height="41" transform="translate(22.885 96.4481)" fill="white"/>
<text fill="black" style="white-space: pre" xml:space="preserve" font-size="14" font-weight="300" letter-spacing="0em"><tspan x="91.0812" y="122.039">&#x410;&#x43b;&#x43b;&#x438;&#x43a;&#x441;&#x430;&#x430;&#x440;</tspan></text>
<rect width="200" height="62" transform="translate(142.885 229.626)" fill="white"/>
<text fill="black" style="white-space: pre" xml:space="preserve" font-size="14" font-weight="300" letter-spacing="0em"><tspan x="206.381" y="257.217">&#x421;&#x442;&#x430;&#x43d;&#x438;&#x441;&#x43b;&#x430;&#x432;&#x2028;</tspan><tspan x="199.928" y="274.217">&#x41a;&#x43b;&#x438;&#x442;&#x43e;&#x442;&#x435;&#x445;&#x43d;&#x438;&#x441;</tspan></text>
<rect width="200" height="62" transform="translate(263.885 311.626)" fill="white"/>
<text fill="black" style="white-space: pre" xml:space="preserve" font-size="14" font-weight="300" letter-spacing="0em"><tspan x="331.681" y="339.217">&#x41b;&#x44e;&#x434;&#x43c;&#x438;&#x43b;&#x430;&#x2028;</tspan><tspan x="320.08" y="356.217">&#x412;&#x43e;&#x434;&#x43e;&#x43b;&#x430;&#x437;&#x441;&#x43a;&#x430;&#x44f;</tspan></text>
<rect width="200" height="62" transform="translate(742.885 85.8892)" fill="white"/>
<text fill="black" style="white-space: pre" xml:space="preserve" font-size="14" font-weight="300" letter-spacing="0em"><tspan x="816.677" y="113.48">&#x414;&#x443; &#x425;&#x430;&#x441;&#x442;&#x2028;</tspan><tspan x="794.905" y="130.48">&#x412;&#x44f;&#x447;&#x435;&#x441;&#x43b;&#x430;&#x432;&#x43e;&#x432;&#x438;&#x447;</tspan></text>
<rect width="200" height="41" transform="translate(263.885 393.626)" fill="white"/>
<text fill="black" style="white-space: pre" xml:space="preserve" font-size="14" font-weight="300" letter-spacing="0em"><tspan x="308.541" y="419.217">&#x41e;&#x43b;&#x44c;&#x433;&#x430; &#x411;&#x43e;&#x440;&#x433;&#x434;&#x43e;&#x440;&#x444;</tspan></text>
<rect width="200" height="41" transform="translate(264.885 575.626)" fill="white"/>
<text fill="black" style="white-space: pre" xml:space="preserve" font-size="14" font-weight="300" letter-spacing="0em"><tspan x="321.578" y="601.217">&#x421;&#x435;&#x440;&#x433;&#x435;&#x439; &#x411;&#x440;&#x443;&#x441;</tspan></text>
<rect width="200" height="41" transform="translate(142.885 637.626)" fill="white"/>
<text fill="black" style="white-space: pre" xml:space="preserve" font-size="14" font-weight="300" letter-spacing="0em"><tspan x="195.716" y="663.217">&#x418;&#x433;&#x43e;&#x440;&#x44c; &#x417;&#x432;&#x435;&#x440;&#x451;&#x43a;</tspan></text>
<rect width="200" height="41" transform="translate(742.885 167.626)" fill="white"/>
<text fill="black" style="white-space: pre" xml:space="preserve" font-size="14" font-weight="300" letter-spacing="0em"><tspan x="765.802" y="193.217">&#x410;&#x43d;&#x430;&#x441;&#x442;&#x430;&#x441;&#x438;&#x44f; &#x428;&#x438;&#x440;&#x438;&#x43d;&#x43a;&#x438;&#x43d;&#x430;</tspan></text>
<rect width="200" height="41" transform="translate(742.885 238.626)" fill="white"/>
<text fill="black" style="white-space: pre" xml:space="preserve" font-size="14" font-weight="300" letter-spacing="0em"><tspan x="783.521" y="264.217">&#x410;&#x43b;&#x435;&#x43a;&#x441;&#x430;&#x43d;&#x434;&#x440; &#x422;&#x440;&#x43e;&#x44f;&#x43d;</tspan></text>
<path d="M342.985 260.8C342.79 260.995 342.79 261.312 342.985 261.507L346.167 264.689C346.362 264.884 346.679 264.884 346.874 264.689C347.069 264.494 347.069 264.177 346.874 263.982L344.046 261.154L346.874 258.325C347.069 258.13 347.069 257.813 346.874 257.618C346.679 257.423 346.362 257.423 346.167 257.618L342.985 260.8ZM742.982 261.154V260.654H343.339V261.154V261.654H742.982V261.154Z" fill="#AAAAAA"/>
<rect width="200" height="41" transform="translate(742.885 392.626)" fill="white"/>
<text fill="black" style="white-space: pre" xml:space="preserve" font-size="14" font-weight="300" letter-spacing="0em"><tspan x="778.654" y="418.217">&#x414;&#x43c;&#x438;&#x442;&#x440;&#x438;&#x439; &#x412;&#x43e;&#x437;&#x438;&#x433;&#x43d;&#x443;&#x439;</tspan></text>
<rect width="200" height="41" transform="translate(742.885 454.626)" fill="white"/>
<text fill="black" style="white-space: pre" xml:space="preserve" font-size="14" font-weight="300" letter-spacing="0em"><tspan x="766.595" y="480.217">&#x41a;&#x440;&#x438;&#x441;&#x442;&#x438;&#x43d;&#x430; &#x411;&#x43e;&#x43b;&#x442;&#x443;&#x448;&#x43a;&#x438;&#x43d;&#x430;</tspan></text>
<rect width="200" height="41" transform="translate(742.885 514.626)" fill="white"/>
<text fill="black" style="white-space: pre" xml:space="preserve" font-size="14" font-weight="300" letter-spacing="0em"><tspan x="775.694" y="540.217">&#x41c;&#x430;&#x43a;&#x441;&#x438;&#x43c; &#x412;&#x438;&#x441;&#x44e;&#x43b;&#x44c;&#x43a;&#x438;&#x43d;</tspan></text>
<rect width="200" height="41" transform="translate(142.885 697.626)" fill="white"/>
<text fill="black" style="white-space: pre" xml:space="preserve" font-size="14" font-weight="300" letter-spacing="0em"><tspan x="199.586" y="723.217">&#x410;&#x43d;&#x442;&#x43e;&#x43d; &#x421;&#x442;&#x440;&#x43e;&#x439;</tspan></text>
<path d="M123.674 719.852H123.174V720.352H123.674V719.852ZM124.027 137.259C123.832 137.063 123.515 137.063 123.32 137.259L120.138 140.441C119.943 140.636 119.943 140.953 120.138 141.148C120.333 141.343 120.65 141.343 120.845 141.148L123.674 138.319L126.502 141.148C126.697 141.343 127.014 141.343 127.209 141.148C127.405 140.953 127.405 140.636 127.209 140.441L124.027 137.259ZM142.896 719.852V719.352H123.674V719.852V720.352H142.896V719.852ZM123.674 719.852H124.174V137.612H123.674H123.174V719.852H123.674Z" fill="#AAAAAA"/>
<path d="M142.913 720.297H143.413V719.297H142.913V719.797V720.297ZM123.625 719.797H123.125V720.297H123.625V719.797ZM123.978 137.219C123.783 137.024 123.466 137.024 123.271 137.219L120.089 140.401C119.894 140.597 119.894 140.913 120.089 141.109C120.284 141.304 120.601 141.304 120.796 141.109L123.625 138.28L126.453 141.109C126.648 141.304 126.965 141.304 127.16 141.109C127.355 140.913 127.355 140.597 127.16 140.401L123.978 137.219ZM142.913 719.797V719.297H123.625V719.797V720.297H142.913V719.797ZM123.625 719.797H124.125V137.573H123.625H123.125V719.797H123.625Z" fill="#AAAAAA"/>
<path d="M123.663 658.764H142.394" stroke="#AAAAAA" stroke-linecap="square"/>
<path d="M123.663 260.84H142.394" stroke="#AAAAAA" stroke-linecap="square"/>
<path d="M962.605 535.942V536.442H963.105V535.942H962.605ZM962.605 413.897H963.105V413.397H962.605V413.897ZM942.823 413.543C942.628 413.739 942.628 414.055 942.823 414.251L946.005 417.433C946.2 417.628 946.517 417.628 946.712 417.433C946.907 417.237 946.907 416.921 946.712 416.725L943.884 413.897L946.712 411.069C946.907 410.873 946.907 410.557 946.712 410.361C946.517 410.166 946.2 410.166 946.005 410.361L942.823 413.543ZM463.366 414.443C463.17 414.638 463.17 414.954 463.366 415.15L466.548 418.332C466.743 418.527 467.06 418.527 467.255 418.332C467.45 418.136 467.45 417.82 467.255 417.625L464.426 414.796L467.255 411.968C467.45 411.772 467.45 411.456 467.255 411.261C467.06 411.065 466.743 411.065 466.548 411.261L463.366 414.443ZM723.624 536.851H723.124V537.351H723.624V536.851ZM943.218 535.942V536.442H962.605V535.942V535.442H943.218V535.942ZM962.605 535.942H963.105V413.897H962.605H962.105V535.942H962.605ZM962.605 413.897V413.397H943.177V413.897V414.397H962.605V413.897ZM742.939 475.941V475.441H723.595V475.941V476.441H742.939V475.941ZM742.88 536.851V536.351H723.624V536.851V537.351H742.88V536.851ZM742.922 414.796V414.296H723.624V414.796V415.296H742.922V414.796ZM723.624 414.796V414.296H463.719V414.796V415.296H723.624V414.796ZM723.624 536.851H724.124V414.796H723.624H723.124V536.851H723.624Z" fill="#AAAAAA"/>
<path d="M223.23 117.509C223.034 117.705 223.034 118.021 223.23 118.216L226.412 121.398C226.607 121.594 226.924 121.594 227.119 121.398C227.314 121.203 227.314 120.886 227.119 120.691L224.29 117.863L227.119 115.034C227.314 114.839 227.314 114.523 227.119 114.327C226.924 114.132 226.607 114.132 226.412 114.327L223.23 117.509ZM742.866 117.863L742.866 117.363L223.583 117.363L223.583 117.863L223.583 118.363L742.866 118.363L742.866 117.863Z" fill="#AAAAAA"/>
<path d="M723.788 117.924V189.523H742.851" stroke="#AAAAAA"/>
</svg>
